<svg width="40" height="46" viewBox="0 0 40 46" fill="none" xmlns="http://www.w3.org/2000/svg">
<path d="M15.8084 26.6371L1.79974 18.1151C1.27964 17.7975 0.666411 17.9348 0.3028 18.3263C0.0729597 18.5738 0.0331299 18.9313 0.0186613 19.2687C0.010771 19.4527 0.00476558 19.6373 0 19.8232L0.0595333 22.3692C0.654866 31.1476 5.35342 38.8041 12.2547 43.4337L14.3475 44.7067C14.5179 44.8003 14.6883 44.8914 14.8594 44.9806C15.1687 45.142 15.5101 45.2925 15.8487 45.2083C16.3581 45.0815 16.7701 44.6244 16.7563 44.0244L16.3808 27.6308C16.3717 27.2232 16.1564 26.8477 15.8084 26.6371Z" fill="white"/>
<path d="M27.3611 19.2692C27.3599 19.2716 27.3568 19.2725 27.3545 19.2711L9.79654 8.5904C8.94018 8.06837 7.84568 8.70031 7.86858 9.70316L8.08381 19.1501C8.09297 19.5806 8.32195 19.979 8.69288 20.2033L16.7436 25.0986C17.6183 25.6297 18.1541 26.5593 18.177 27.5805L18.3785 36.3177C18.3876 36.7481 18.6166 37.1465 18.9876 37.3709L26.5941 41.9959C27.4001 42.4859 28.4305 41.8906 28.4076 40.9473L27.9359 20.2583C27.9267 19.8525 27.7133 19.4784 27.3678 19.2673C27.3655 19.2658 27.3624 19.2667 27.3611 19.2692Z" fill="white"/>
<path d="M39.4524 13.6412C39.453 13.6423 39.4546 13.6419 39.4546 13.6407C39.4437 13.2351 39.2288 12.8619 38.8823 12.6521L18.3845 0.187419C17.5281 -0.334614 16.4336 0.297321 16.4565 1.30017L16.6534 9.98241C16.6626 10.4129 16.8916 10.8112 17.2625 11.0356L28.2853 17.7396C29.16 18.2708 29.6958 19.2004 29.7187 20.2216L30.0118 33.1488C30.021 33.5792 30.2499 33.9776 30.6209 34.202L38.1862 38.8041C38.9922 39.2941 40.0225 38.6988 39.9997 37.7555L39.4502 13.6418C39.4502 13.6405 39.4519 13.6401 39.4524 13.6412Z" fill="white"/>
</svg>
