<?xml version="1.0" encoding="UTF-8"?> <svg xmlns="http://www.w3.org/2000/svg" zoomAndPan="magnify" viewBox="29.2500 18.7500 199.5000 72.7500" preserveAspectRatio="xMidYMid meet" version="1.2"><defs></defs><g id="87cf0a5295"><g style="fill:#000000;fill-opacity:1;"><g transform="translate(48.085182, 37.425403)"><path style="stroke:none" d=""></path></g></g><g style="fill:#000000;fill-opacity:1;"><g transform="translate(55.813856, 37.425403)"><path style="stroke:none" d="M -0.179688 -5.394531 C -1.042969 -4.378906 -2.5625 -2.710938 -2.5625 -1.28125 C -2.5625 -0.445312 -1.996094 0 -1.191406 0 C 0.746094 0 3.964844 -3.335938 5.214844 -4.617188 C 5.332031 -4.738281 5.78125 -5.214844 5.78125 -5.332031 C 5.78125 -5.421875 5.691406 -5.453125 5.632812 -5.453125 C 5.453125 -5.453125 5.007812 -4.886719 4.886719 -4.765625 C 4.023438 -3.933594 0.445312 -0.476562 -0.863281 -0.476562 C -1.191406 -0.476562 -1.488281 -0.714844 -1.488281 -1.074219 C -1.488281 -1.847656 -0.625 -2.742188 -0.179688 -3.308594 L 5.125 -9.742188 L 7.003906 -9.742188 L 7.300781 -10.25 L 5.484375 -10.25 L 8.671875 -14.0625 L 7.003906 -13.824219 L 3.992188 -10.25 L 2.265625 -10.25 L 1.9375 -9.742188 L 3.574219 -9.742188 Z M -0.179688 -5.394531 "></path></g></g><g style="fill:#000000;fill-opacity:1;"><g transform="translate(61.326351, 37.425403)"><path style="stroke:none" d="M -4.648438 0 L -2.890625 -0.0898438 L 0.179688 -3.875 C 0.953125 -4.828125 1.757812 -5.660156 2.742188 -6.40625 C 3.070312 -6.675781 4.203125 -7.417969 4.617188 -7.417969 C 4.828125 -7.417969 4.945312 -7.300781 4.945312 -7.089844 C 4.945312 -6.078125 1.132812 -2.710938 1.132812 -1.160156 C 1.132812 -0.417969 1.726562 0 2.445312 0 C 4.320312 0 7.6875 -3.335938 8.96875 -4.589844 C 9.089844 -4.707031 9.65625 -5.15625 9.65625 -5.332031 C 9.65625 -5.394531 9.59375 -5.453125 9.535156 -5.453125 C 9.296875 -5.453125 8.789062 -4.855469 8.640625 -4.707031 C 7.628906 -3.695312 4.230469 -0.535156 2.742188 -0.535156 C 2.472656 -0.535156 2.324219 -0.683594 2.324219 -0.953125 C 2.324219 -1.757812 6.136719 -5.394531 6.136719 -6.792969 C 6.136719 -7.480469 5.660156 -7.925781 4.976562 -7.925781 C 3.964844 -7.925781 2.445312 -6.554688 1.726562 -5.960938 L 3.308594 -8.015625 C 5.871094 -9.414062 8.433594 -10.816406 10.609375 -12.78125 C 11.652344 -13.738281 13.796875 -15.941406 13.796875 -17.429688 C 13.796875 -17.996094 13.347656 -18.355469 12.8125 -18.355469 C 11.382812 -18.355469 9.027344 -16.121094 8.046875 -15.195312 C 5.601562 -12.902344 3.574219 -10.191406 1.488281 -7.597656 Z M 13.4375 -17.429688 C 13.4375 -16.121094 11.414062 -14.003906 10.519531 -13.199219 C 8.492188 -11.324219 6.136719 -10.011719 3.726562 -8.730469 C 5.007812 -10.457031 10.519531 -17.96875 12.902344 -17.96875 C 13.230469 -17.96875 13.4375 -17.757812 13.4375 -17.429688 Z M 13.4375 -17.429688 "></path></g></g><g style="fill:#000000;fill-opacity:1;"><g transform="translate(70.712492, 37.425403)"><path style="stroke:none" d="M 7.957031 -5.304688 C 7.957031 -5.363281 7.894531 -5.421875 7.835938 -5.421875 C 7.628906 -5.421875 7.121094 -4.855469 6.972656 -4.707031 C 5.691406 -3.425781 2.265625 -0.507812 0.328125 -0.507812 C -0.328125 -0.507812 -0.773438 -0.953125 -0.773438 -1.609375 C -0.773438 -2.054688 -0.566406 -2.414062 -0.328125 -2.769531 C 1.371094 -3.335938 5.511719 -4.765625 5.511719 -7.003906 C 5.511719 -7.628906 4.917969 -7.894531 4.378906 -7.894531 C 3.007812 -7.894531 0.863281 -6.4375 0 -5.484375 C -0.835938 -4.589844 -1.816406 -3.367188 -1.816406 -2.085938 C -1.816406 -0.953125 -0.863281 0 0.269531 0 C 2.5625 0 6.585938 -3.664062 7.957031 -5.304688 Z M 4.917969 -7.089844 C 4.917969 -6.316406 3.992188 -5.421875 3.457031 -4.976562 C 2.445312 -4.140625 1.132812 -3.695312 -0.0585938 -3.246094 C 0.65625 -4.351562 2.949219 -7.539062 4.410156 -7.539062 C 4.679688 -7.539062 4.917969 -7.390625 4.917969 -7.089844 Z M 4.917969 -7.089844 "></path></g></g><g style="fill:#000000;fill-opacity:1;"><g transform="translate(26.996336, 68.161813)"><path style="stroke:none" d="M 2.390625 -8.828125 C 2.390625 -10.460938 2.632812 -12.117188 3.125 -13.796875 C 3.613281 -15.484375 4.320312 -17.082031 5.25 -18.59375 C 6.175781 -20.101562 7.28125 -21.445312 8.5625 -22.625 C 9.84375 -23.800781 11.269531 -24.726562 12.84375 -25.40625 C 14.425781 -26.082031 16.128906 -26.421875 17.953125 -26.421875 C 19.171875 -26.421875 20.328125 -26.226562 21.421875 -25.84375 C 22.523438 -25.457031 23.425781 -24.847656 24.125 -24.015625 C 24.832031 -23.179688 25.1875 -22.101562 25.1875 -20.78125 C 25.1875 -19.132812 24.851562 -17.632812 24.1875 -16.28125 C 23.53125 -14.9375 22.664062 -13.738281 21.59375 -12.6875 C 20.519531 -11.644531 19.351562 -10.769531 18.09375 -10.0625 C 16.84375 -9.363281 15.597656 -8.835938 14.359375 -8.484375 C 13.128906 -8.128906 12.035156 -7.953125 11.078125 -7.953125 C 10.316406 -7.953125 9.71875 -7.988281 9.28125 -8.0625 C 8.84375 -8.144531 8.398438 -8.304688 7.953125 -8.546875 L 8.1875 -9.0625 C 8.6875 -8.769531 9.476562 -8.625 10.5625 -8.625 C 11.757812 -8.625 12.90625 -8.914062 14 -9.5 C 15.101562 -10.082031 16.128906 -10.863281 17.078125 -11.84375 C 18.035156 -12.820312 18.863281 -13.882812 19.5625 -15.03125 C 20.269531 -16.1875 20.820312 -17.351562 21.21875 -18.53125 C 21.613281 -19.707031 21.8125 -20.789062 21.8125 -21.78125 C 21.8125 -22.96875 21.503906 -23.953125 20.890625 -24.734375 C 20.285156 -25.515625 19.304688 -25.90625 17.953125 -25.90625 C 16.265625 -25.90625 14.703125 -25.476562 13.265625 -24.625 C 11.835938 -23.78125 10.597656 -22.648438 9.546875 -21.234375 C 8.503906 -19.816406 7.695312 -18.21875 7.125 -16.4375 C 6.5625 -14.664062 6.28125 -12.84375 6.28125 -10.96875 C 6.28125 -9.1875 6.523438 -7.519531 7.015625 -5.96875 C 7.503906 -4.425781 8.3125 -3.175781 9.4375 -2.21875 C 10.5625 -1.269531 12.09375 -0.796875 14.03125 -0.796875 C 15.132812 -0.796875 16.253906 -1.070312 17.390625 -1.625 C 18.535156 -2.1875 19.609375 -2.894531 20.609375 -3.75 C 21.617188 -4.613281 22.484375 -5.5 23.203125 -6.40625 C 23.921875 -7.320312 24.382812 -8.15625 24.59375 -8.90625 L 25.15625 -8.734375 C 24.757812 -7.546875 24.148438 -6.378906 23.328125 -5.234375 C 22.503906 -4.097656 21.515625 -3.078125 20.359375 -2.171875 C 19.210938 -1.273438 17.941406 -0.554688 16.546875 -0.015625 C 15.160156 0.523438 13.695312 0.796875 12.15625 0.796875 C 10.351562 0.796875 8.707031 0.472656 7.21875 -0.171875 C 5.738281 -0.828125 4.5625 -1.863281 3.6875 -3.28125 C 2.820312 -4.695312 2.390625 -6.546875 2.390625 -8.828125 Z M 2.390625 -8.828125 "></path></g></g><g style="fill:#000000;fill-opacity:1;"><g transform="translate(51.784957, 68.161813)"><path style="stroke:none" d="M 0 -25.15625 L 0 -25.625 L 10.53125 -25.625 L 10.53125 -25.15625 C 9.550781 -25.15625 8.914062 -24.910156 8.625 -24.421875 C 8.332031 -23.929688 8.316406 -23.328125 8.578125 -22.609375 C 9.160156 -20.960938 9.675781 -19.539062 10.125 -18.34375 C 10.582031 -17.15625 11 -16.078125 11.375 -15.109375 C 11.757812 -14.148438 12.140625 -13.207031 12.515625 -12.28125 C 12.890625 -11.351562 13.296875 -10.332031 13.734375 -9.21875 C 14.171875 -8.101562 14.679688 -6.804688 15.265625 -5.328125 C 15.660156 -6.328125 16.117188 -7.503906 16.640625 -8.859375 C 17.171875 -10.210938 17.722656 -11.628906 18.296875 -13.109375 C 18.867188 -14.597656 19.390625 -16.03125 19.859375 -17.40625 C 20.335938 -18.78125 20.722656 -20.007812 21.015625 -21.09375 C 21.304688 -22.1875 21.453125 -23.007812 21.453125 -23.5625 C 21.453125 -24.039062 21.3125 -24.425781 21.03125 -24.71875 C 20.757812 -25.007812 20.082031 -25.15625 19 -25.15625 L 19 -25.625 L 26.46875 -25.625 L 26.46875 -25.15625 C 25.375 -25.15625 24.519531 -24.742188 23.90625 -23.921875 C 23.300781 -23.097656 22.738281 -22.035156 22.21875 -20.734375 C 21.34375 -18.535156 20.550781 -16.5625 19.84375 -14.8125 C 19.144531 -13.070312 18.488281 -11.410156 17.875 -9.828125 C 17.269531 -8.253906 16.65625 -6.660156 16.03125 -5.046875 C 15.40625 -3.429688 14.722656 -1.65625 13.984375 0.28125 C 13.847656 0.644531 13.691406 0.828125 13.515625 0.828125 C 13.328125 0.828125 13.164062 0.644531 13.03125 0.28125 C 12.289062 -1.65625 11.609375 -3.429688 10.984375 -5.046875 C 10.359375 -6.660156 9.738281 -8.25 9.125 -9.8125 C 8.519531 -11.375 7.867188 -13.035156 7.171875 -14.796875 C 6.472656 -16.554688 5.6875 -18.535156 4.8125 -20.734375 C 4.300781 -22.035156 3.707031 -23.097656 3.03125 -23.921875 C 2.363281 -24.742188 1.351562 -25.15625 0 -25.15625 Z M 0 -25.15625 "></path></g></g><g style="fill:#000000;fill-opacity:1;"><g transform="translate(75.46126, 68.161813)"><path style="stroke:none" d="M 2.390625 -8.828125 C 2.390625 -10.460938 2.632812 -12.117188 3.125 -13.796875 C 3.613281 -15.484375 4.320312 -17.082031 5.25 -18.59375 C 6.175781 -20.101562 7.28125 -21.445312 8.5625 -22.625 C 9.84375 -23.800781 11.269531 -24.726562 12.84375 -25.40625 C 14.425781 -26.082031 16.128906 -26.421875 17.953125 -26.421875 C 19.171875 -26.421875 20.328125 -26.226562 21.421875 -25.84375 C 22.523438 -25.457031 23.425781 -24.847656 24.125 -24.015625 C 24.832031 -23.179688 25.1875 -22.101562 25.1875 -20.78125 C 25.1875 -19.132812 24.851562 -17.632812 24.1875 -16.28125 C 23.53125 -14.9375 22.664062 -13.738281 21.59375 -12.6875 C 20.519531 -11.644531 19.351562 -10.769531 18.09375 -10.0625 C 16.84375 -9.363281 15.597656 -8.835938 14.359375 -8.484375 C 13.128906 -8.128906 12.035156 -7.953125 11.078125 -7.953125 C 10.316406 -7.953125 9.71875 -7.988281 9.28125 -8.0625 C 8.84375 -8.144531 8.398438 -8.304688 7.953125 -8.546875 L 8.1875 -9.0625 C 8.6875 -8.769531 9.476562 -8.625 10.5625 -8.625 C 11.757812 -8.625 12.90625 -8.914062 14 -9.5 C 15.101562 -10.082031 16.128906 -10.863281 17.078125 -11.84375 C 18.035156 -12.820312 18.863281 -13.882812 19.5625 -15.03125 C 20.269531 -16.1875 20.820312 -17.351562 21.21875 -18.53125 C 21.613281 -19.707031 21.8125 -20.789062 21.8125 -21.78125 C 21.8125 -22.96875 21.503906 -23.953125 20.890625 -24.734375 C 20.285156 -25.515625 19.304688 -25.90625 17.953125 -25.90625 C 16.265625 -25.90625 14.703125 -25.476562 13.265625 -24.625 C 11.835938 -23.78125 10.597656 -22.648438 9.546875 -21.234375 C 8.503906 -19.816406 7.695312 -18.21875 7.125 -16.4375 C 6.5625 -14.664062 6.28125 -12.84375 6.28125 -10.96875 C 6.28125 -9.1875 6.523438 -7.519531 7.015625 -5.96875 C 7.503906 -4.425781 8.3125 -3.175781 9.4375 -2.21875 C 10.5625 -1.269531 12.09375 -0.796875 14.03125 -0.796875 C 15.132812 -0.796875 16.253906 -1.070312 17.390625 -1.625 C 18.535156 -2.1875 19.609375 -2.894531 20.609375 -3.75 C 21.617188 -4.613281 22.484375 -5.5 23.203125 -6.40625 C 23.921875 -7.320312 24.382812 -8.15625 24.59375 -8.90625 L 25.15625 -8.734375 C 24.757812 -7.546875 24.148438 -6.378906 23.328125 -5.234375 C 22.503906 -4.097656 21.515625 -3.078125 20.359375 -2.171875 C 19.210938 -1.273438 17.941406 -0.554688 16.546875 -0.015625 C 15.160156 0.523438 13.695312 0.796875 12.15625 0.796875 C 10.351562 0.796875 8.707031 0.472656 7.21875 -0.171875 C 5.738281 -0.828125 4.5625 -1.863281 3.6875 -3.28125 C 2.820312 -4.695312 2.390625 -6.546875 2.390625 -8.828125 Z M 2.390625 -8.828125 "></path></g></g><g style="fill:#000000;fill-opacity:1;"><g transform="translate(100.249881, 68.161813)"><path style="stroke:none" d="M 10.8125 0 L 0.796875 0 L 0.796875 -0.484375 C 1.566406 -0.484375 2.15625 -0.664062 2.5625 -1.03125 C 2.96875 -1.40625 3.253906 -1.867188 3.421875 -2.421875 C 3.597656 -2.984375 3.707031 -3.570312 3.75 -4.1875 C 3.789062 -4.8125 3.8125 -5.363281 3.8125 -5.84375 L 3.8125 -21.375 C 3.8125 -21.90625 3.789062 -22.328125 3.75 -22.640625 C 3.707031 -22.960938 3.554688 -23.125 3.296875 -23.125 C 2.953125 -23.125 2.632812 -23.050781 2.34375 -22.90625 C 2.050781 -22.757812 1.535156 -22.6875 0.796875 -22.6875 L 0.796875 -23.171875 C 1.273438 -23.171875 1.863281 -23.328125 2.5625 -23.640625 C 3.257812 -23.960938 3.875 -24.320312 4.40625 -24.71875 C 4.988281 -25.132812 5.453125 -25.519531 5.796875 -25.875 C 6.140625 -26.238281 6.472656 -26.421875 6.796875 -26.421875 C 7.140625 -26.421875 7.390625 -26.257812 7.546875 -25.9375 C 7.703125 -25.625 7.78125 -25.054688 7.78125 -24.234375 L 7.78125 -14.984375 C 8.414062 -17.128906 9.335938 -19.0625 10.546875 -20.78125 C 11.753906 -22.5 13.128906 -23.867188 14.671875 -24.890625 C 16.222656 -25.910156 17.820312 -26.421875 19.46875 -26.421875 C 20.582031 -26.421875 21.410156 -26.300781 21.953125 -26.0625 C 22.492188 -25.820312 22.765625 -25.703125 22.765625 -25.703125 L 22.765625 -19.671875 L 22.296875 -19.671875 C 22.296875 -20.203125 22.140625 -20.738281 21.828125 -21.28125 C 21.523438 -21.820312 21.066406 -22.273438 20.453125 -22.640625 C 19.847656 -23.015625 19.070312 -23.203125 18.125 -23.203125 C 16.632812 -23.203125 15.335938 -22.945312 14.234375 -22.4375 C 13.140625 -21.9375 12.207031 -21.28125 11.4375 -20.46875 C 10.675781 -19.664062 10.054688 -18.8125 9.578125 -17.90625 C 9.097656 -17.007812 8.722656 -16.15625 8.453125 -15.34375 C 8.191406 -14.539062 8.015625 -13.890625 7.921875 -13.390625 C 7.828125 -12.890625 7.78125 -12.640625 7.78125 -12.640625 L 7.78125 -5.84375 C 7.78125 -5.363281 7.800781 -4.8125 7.84375 -4.1875 C 7.882812 -3.570312 7.988281 -2.984375 8.15625 -2.421875 C 8.332031 -1.867188 8.628906 -1.40625 9.046875 -1.03125 C 9.472656 -0.664062 10.0625 -0.484375 10.8125 -0.484375 Z M 10.8125 0 "></path></g></g><g style="fill:#000000;fill-opacity:1;"><g transform="translate(169.184454, 90.837004)"><path style="stroke:none" d="M 13.855469 -17.132812 C 13.855469 -17.699219 13.527344 -17.996094 12.960938 -17.996094 C 10.609375 -17.996094 5.601562 -12.425781 4.230469 -10.757812 C 3.007812 -9.265625 1.757812 -7.777344 0.566406 -6.257812 C -0.296875 -5.15625 -1.25 -3.992188 -1.847656 -2.742188 C -2.054688 -2.292969 -2.203125 -1.816406 -2.203125 -1.339844 C -2.203125 -0.535156 -1.699219 0 -0.863281 0 C 1.25 0 4.410156 -3.128906 5.722656 -4.558594 C 5.78125 -4.617188 6.375 -5.246094 6.375 -5.363281 C 6.375 -5.453125 6.316406 -5.511719 6.226562 -5.511719 C 6.050781 -5.511719 5.839844 -5.246094 5.75 -5.15625 C 5.214844 -4.589844 4.707031 -4.050781 4.140625 -3.515625 C 3.308594 -2.769531 0.597656 -0.476562 -0.566406 -0.476562 C -0.863281 -0.476562 -1.074219 -0.683594 -1.074219 -0.984375 C -1.074219 -2.175781 2.800781 -7.152344 3.484375 -8.105469 C 6.136719 -9.296875 8.492188 -10.757812 10.695312 -12.664062 C 11.769531 -13.617188 13.855469 -15.554688 13.855469 -17.132812 Z M 13.410156 -16.984375 C 13.410156 -15.613281 11.175781 -13.675781 10.21875 -12.84375 C 8.132812 -10.964844 6.375 -9.953125 3.902344 -8.699219 C 4.648438 -9.863281 5.484375 -10.964844 6.347656 -12.039062 C 7.359375 -13.289062 11.175781 -17.582031 12.902344 -17.582031 C 13.261719 -17.582031 13.410156 -17.3125 13.410156 -16.984375 Z M 13.410156 -16.984375 "></path></g></g><g style="fill:#000000;fill-opacity:1;"><g transform="translate(174.756545, 90.837004)"><path style="stroke:none" d="M 5.09375 -10.132812 C 5.09375 -10.457031 4.828125 -10.726562 4.5 -10.726562 C 3.992188 -10.726562 3.515625 -10.28125 3.515625 -9.773438 C 3.515625 -9.445312 3.785156 -9.175781 4.113281 -9.175781 C 4.617188 -9.175781 5.09375 -9.625 5.09375 -10.132812 Z M 0.773438 -6.464844 C -0.03125 -5.453125 -2.59375 -2.5625 -2.59375 -1.222656 C -2.59375 -0.507812 -1.964844 0 -1.28125 0 C 0.328125 0 4.050781 -3.574219 5.125 -4.589844 C 5.273438 -4.738281 5.722656 -5.066406 5.722656 -5.273438 C 5.722656 -5.332031 5.691406 -5.421875 5.601562 -5.421875 C 5.484375 -5.421875 0.296875 -0.476562 -1.132812 -0.476562 C -1.402344 -0.476562 -1.550781 -0.625 -1.550781 -0.894531 C -1.550781 -1.609375 0.269531 -3.785156 0.714844 -4.320312 L 3.574219 -7.867188 L 1.757812 -7.6875 Z M 0.773438 -6.464844 "></path></g></g><g style="fill:#000000;fill-opacity:1;"><g transform="translate(179.762491, 90.837004)"><path style="stroke:none" d="M -1.757812 -0.238281 L -0.0898438 -0.328125 C 1.578125 -2.117188 2.921875 -4.261719 4.828125 -5.839844 C 5.304688 -6.226562 6.703125 -7.480469 7.390625 -7.480469 C 7.570312 -7.480469 7.71875 -7.332031 7.71875 -7.152344 C 7.71875 -6.199219 3.992188 -2.890625 3.992188 -1.28125 C 3.992188 -0.65625 4.558594 -0.0898438 5.183594 -0.0898438 C 7.269531 -0.0898438 10.070312 -3.367188 11.441406 -4.796875 C 11.5625 -4.917969 11.890625 -5.214844 11.890625 -5.363281 C 11.890625 -5.421875 11.859375 -5.542969 11.769531 -5.542969 C 11.5 -5.542969 7.359375 -0.65625 5.691406 -0.65625 C 5.394531 -0.65625 5.273438 -0.835938 5.273438 -1.101562 C 5.273438 -2.503906 8.851562 -5.332031 8.851562 -7.003906 C 8.851562 -7.570312 8.402344 -7.957031 7.867188 -7.957031 C 6.527344 -7.957031 5.066406 -6.585938 4.082031 -5.78125 C 4.261719 -6.199219 4.46875 -6.613281 4.46875 -7.0625 C 4.46875 -7.65625 4.082031 -8.105469 3.484375 -8.105469 C 2.5625 -8.105469 2.265625 -7.71875 1.640625 -7.089844 C 1.25 -6.703125 0.835938 -6.289062 0.445312 -5.898438 C 0.359375 -5.808594 -0.207031 -5.273438 -0.207031 -5.15625 C -0.207031 -5.09375 -0.179688 -5.007812 -0.0898438 -5.007812 C 0.296875 -5.007812 2.265625 -7.539062 3.097656 -7.539062 C 3.335938 -7.539062 3.457031 -7.332031 3.457031 -7.121094 C 3.457031 -6.496094 1.90625 -4.707031 1.550781 -4.261719 Z M -1.757812 -0.238281 "></path></g></g><g style="fill:#000000;fill-opacity:1;"><g transform="translate(190.847078, 90.837004)"><path style="stroke:none" d="M -2.683594 -0.121094 L 0.714844 -4.527344 C 0.714844 -4.113281 0.804688 -3.753906 1.28125 -3.753906 C 1.9375 -3.753906 2.710938 -4.378906 3.160156 -4.796875 C 3.277344 -4.707031 3.335938 -4.679688 3.335938 -4.527344 C 3.335938 -4.050781 1.371094 -1.9375 1.371094 -1.011719 C 1.371094 -0.359375 2.027344 0 2.621094 0 C 4.707031 0 7.480469 -3.070312 8.910156 -4.46875 C 9.175781 -4.738281 9.476562 -5.066406 9.683594 -5.394531 C 9.683594 -5.484375 9.59375 -5.511719 9.535156 -5.511719 C 9.117188 -5.511719 5.035156 -0.507812 2.921875 -0.507812 C 2.710938 -0.507812 2.445312 -0.597656 2.445312 -0.863281 C 2.445312 -1.550781 4.230469 -3.097656 4.230469 -4.320312 C 4.230469 -4.765625 4.050781 -5.007812 3.664062 -5.246094 C 4.289062 -5.78125 6.527344 -7.628906 7.359375 -7.628906 C 7.449219 -7.628906 7.539062 -7.597656 7.539062 -7.480469 C 7.539062 -7.269531 7.210938 -7.152344 7.210938 -6.972656 C 7.210938 -6.675781 7.480469 -6.527344 7.746094 -6.527344 C 8.105469 -6.527344 8.402344 -6.851562 8.402344 -7.210938 C 8.402344 -7.71875 7.957031 -7.957031 7.507812 -7.957031 C 6.109375 -7.957031 4.230469 -6.226562 3.246094 -5.363281 C 3.007812 -5.421875 2.769531 -5.484375 2.53125 -5.484375 C 1.996094 -5.484375 1.550781 -5.304688 1.101562 -5.007812 L 3.070312 -7.6875 C 5.542969 -9.175781 8.730469 -10.9375 10.875 -12.871094 C 11.859375 -13.765625 14.035156 -16.03125 14.035156 -17.429688 C 14.035156 -18.027344 13.558594 -18.324219 12.992188 -18.324219 C 10.785156 -18.324219 7.121094 -14.003906 5.839844 -12.515625 C 2.292969 -8.460938 -1.132812 -4.378906 -4.261719 0 Z M 13.617188 -17.429688 C 13.617188 -16.148438 11.53125 -14.035156 10.609375 -13.230469 C 8.492188 -11.441406 6.109375 -9.980469 3.726562 -8.582031 C 4.945312 -10.28125 10.578125 -17.9375 12.960938 -17.9375 C 13.261719 -17.9375 13.617188 -17.789062 13.617188 -17.429688 Z M 2.832031 -4.976562 C 2.53125 -4.707031 1.816406 -4.113281 1.402344 -4.113281 C 1.28125 -4.113281 1.160156 -4.230469 1.160156 -4.351562 C 1.160156 -4.707031 1.9375 -5.125 2.265625 -5.125 C 2.472656 -5.125 2.652344 -5.066406 2.832031 -4.976562 Z M 2.832031 -4.976562 "></path></g></g><g style="fill:#000000;fill-opacity:1;"><g transform="translate(116.711147, 68.161813)"><path style="stroke:none" d=""></path></g></g><g style="fill:#000000;fill-opacity:1;"><g transform="translate(128.827938, 68.161813)"><path style="stroke:none" d="M 1.59375 -6.28125 C 1.59375 -7.914062 1.894531 -9.632812 2.5 -11.4375 C 3.113281 -13.238281 3.96875 -14.976562 5.0625 -16.65625 C 6.164062 -18.34375 7.441406 -19.863281 8.890625 -21.21875 C 10.347656 -22.570312 11.929688 -23.644531 13.640625 -24.4375 C 15.359375 -25.226562 17.128906 -25.625 18.953125 -25.625 L 26.65625 -25.625 L 26.65625 -25.15625 C 25.65625 -25.15625 24.941406 -24.921875 24.515625 -24.453125 C 24.085938 -23.992188 23.832031 -23.429688 23.75 -22.765625 C 23.675781 -22.109375 23.640625 -21.445312 23.640625 -20.78125 L 23.640625 -3.78125 C 23.640625 -3.0625 23.957031 -2.703125 24.59375 -2.703125 C 25.039062 -2.703125 25.609375 -2.910156 26.296875 -3.328125 C 26.992188 -3.753906 27.722656 -4.40625 28.484375 -5.28125 L 28.8125 -4.8125 C 28.09375 -4.09375 27.320312 -3.296875 26.5 -2.421875 C 25.675781 -1.546875 24.832031 -0.785156 23.96875 -0.140625 C 23.113281 0.503906 22.25 0.828125 21.375 0.828125 C 20.601562 0.828125 20.125 0.492188 19.9375 -0.171875 C 19.757812 -0.847656 19.671875 -1.675781 19.671875 -2.65625 L 19.671875 -11.515625 C 19.160156 -10.296875 18.519531 -8.976562 17.75 -7.5625 C 16.988281 -6.144531 16.101562 -4.800781 15.09375 -3.53125 C 14.09375 -2.257812 12.984375 -1.210938 11.765625 -0.390625 C 10.546875 0.421875 9.21875 0.828125 7.78125 0.828125 C 7.332031 0.828125 6.765625 0.773438 6.078125 0.671875 C 5.390625 0.566406 4.703125 0.296875 4.015625 -0.140625 C 3.328125 -0.578125 2.75 -1.273438 2.28125 -2.234375 C 1.820312 -3.203125 1.59375 -4.550781 1.59375 -6.28125 Z M 4.96875 -6.59375 C 4.96875 -5.664062 5.140625 -4.769531 5.484375 -3.90625 C 5.828125 -3.050781 6.28125 -2.351562 6.84375 -1.8125 C 7.414062 -1.269531 8.0625 -1 8.78125 -1 C 9.8125 -1 10.796875 -1.285156 11.734375 -1.859375 C 12.679688 -2.441406 13.5625 -3.210938 14.375 -4.171875 C 15.195312 -5.128906 15.945312 -6.171875 16.625 -7.296875 C 17.300781 -8.421875 17.890625 -9.523438 18.390625 -10.609375 C 18.898438 -11.691406 19.328125 -12.644531 19.671875 -13.46875 L 19.671875 -24.796875 L 18.28125 -24.796875 C 17.0625 -24.796875 15.820312 -24.476562 14.5625 -23.84375 C 13.300781 -23.207031 12.09375 -22.328125 10.9375 -21.203125 C 9.789062 -20.078125 8.765625 -18.742188 7.859375 -17.203125 C 6.960938 -15.671875 6.253906 -14.007812 5.734375 -12.21875 C 5.222656 -10.425781 4.96875 -8.550781 4.96875 -6.59375 Z M 4.96875 -6.59375 "></path></g></g><g style="fill:#000000;fill-opacity:1;"><g transform="translate(154.848056, 68.161813)"><path style="stroke:none" d="M 10.8125 0 L 0.796875 0 L 0.796875 -0.484375 C 1.566406 -0.484375 2.15625 -0.664062 2.5625 -1.03125 C 2.96875 -1.40625 3.253906 -1.867188 3.421875 -2.421875 C 3.597656 -2.984375 3.707031 -3.570312 3.75 -4.1875 C 3.789062 -4.8125 3.8125 -5.363281 3.8125 -5.84375 L 3.8125 -31.078125 C 3.8125 -32.816406 4.09375 -34.296875 4.65625 -35.515625 C 5.226562 -36.734375 5.972656 -37.707031 6.890625 -38.4375 C 7.804688 -39.164062 8.785156 -39.695312 9.828125 -40.03125 C 10.878906 -40.363281 11.878906 -40.53125 12.828125 -40.53125 C 13.359375 -40.53125 13.945312 -40.484375 14.59375 -40.390625 C 15.25 -40.296875 15.84375 -40.160156 16.375 -39.984375 C 16.90625 -39.816406 17.257812 -39.601562 17.4375 -39.34375 L 17.4375 -32.34375 L 17.046875 -32.34375 C 17.046875 -33.5625 16.925781 -34.726562 16.6875 -35.84375 C 16.445312 -36.957031 16.003906 -37.875 15.359375 -38.59375 C 14.710938 -39.320312 13.765625 -39.6875 12.515625 -39.6875 C 10.867188 -39.6875 9.664062 -39.148438 8.90625 -38.078125 C 8.15625 -37.003906 7.78125 -35.132812 7.78125 -32.46875 L 7.78125 -25.625 L 14.5 -25.625 L 14.5 -24.125 C 14.050781 -24.332031 13.425781 -24.5 12.625 -24.625 C 11.832031 -24.757812 11.003906 -24.867188 10.140625 -24.953125 C 9.285156 -25.035156 8.5 -25.078125 7.78125 -25.078125 L 7.78125 -5.84375 C 7.78125 -5.363281 7.800781 -4.8125 7.84375 -4.1875 C 7.882812 -3.570312 7.988281 -2.984375 8.15625 -2.421875 C 8.332031 -1.867188 8.628906 -1.40625 9.046875 -1.03125 C 9.472656 -0.664062 10.0625 -0.484375 10.8125 -0.484375 Z M 10.8125 0 "></path></g></g><g style="fill:#000000;fill-opacity:1;"><g transform="translate(170.301117, 68.161813)"><path style="stroke:none" d="M 3.9375 -25.109375 L 0 -25.15625 L 0 -25.625 C 1.457031 -25.625 2.640625 -25.941406 3.546875 -26.578125 C 4.460938 -27.210938 5.164062 -28.023438 5.65625 -29.015625 C 6.144531 -30.015625 6.492188 -31.082031 6.703125 -32.21875 C 6.921875 -33.363281 7.039062 -34.453125 7.0625 -35.484375 C 7.09375 -36.515625 7.109375 -37.363281 7.109375 -38.03125 L 7.90625 -38.03125 L 7.90625 -25.625 L 13.59375 -25.625 L 13.59375 -24.125 C 12.875 -24.4375 12.007812 -24.671875 11 -24.828125 C 10 -24.992188 8.96875 -25.085938 7.90625 -25.109375 L 7.90625 -3.8125 C 7.90625 -3.09375 8.222656 -2.734375 8.859375 -2.734375 C 9.304688 -2.734375 9.875 -2.945312 10.5625 -3.375 C 11.257812 -3.800781 11.988281 -4.453125 12.75 -5.328125 L 13.078125 -4.84375 C 12.359375 -4.132812 11.585938 -3.34375 10.765625 -2.46875 C 9.941406 -1.59375 9.097656 -0.828125 8.234375 -0.171875 C 7.378906 0.472656 6.515625 0.796875 5.640625 0.796875 C 4.867188 0.796875 4.390625 0.457031 4.203125 -0.21875 C 4.023438 -0.894531 3.9375 -1.722656 3.9375 -2.703125 Z M 3.9375 -25.109375 "></path></g></g><g style="fill:#000000;fill-opacity:1;"><g transform="translate(181.106263, 68.161813)"><path style="stroke:none" d="M 2.390625 -8.828125 C 2.390625 -10.460938 2.632812 -12.117188 3.125 -13.796875 C 3.613281 -15.484375 4.320312 -17.082031 5.25 -18.59375 C 6.175781 -20.101562 7.28125 -21.445312 8.5625 -22.625 C 9.84375 -23.800781 11.269531 -24.726562 12.84375 -25.40625 C 14.425781 -26.082031 16.128906 -26.421875 17.953125 -26.421875 C 19.171875 -26.421875 20.328125 -26.226562 21.421875 -25.84375 C 22.523438 -25.457031 23.425781 -24.847656 24.125 -24.015625 C 24.832031 -23.179688 25.1875 -22.101562 25.1875 -20.78125 C 25.1875 -19.132812 24.851562 -17.632812 24.1875 -16.28125 C 23.53125 -14.9375 22.664062 -13.738281 21.59375 -12.6875 C 20.519531 -11.644531 19.351562 -10.769531 18.09375 -10.0625 C 16.84375 -9.363281 15.597656 -8.835938 14.359375 -8.484375 C 13.128906 -8.128906 12.035156 -7.953125 11.078125 -7.953125 C 10.316406 -7.953125 9.71875 -7.988281 9.28125 -8.0625 C 8.84375 -8.144531 8.398438 -8.304688 7.953125 -8.546875 L 8.1875 -9.0625 C 8.6875 -8.769531 9.476562 -8.625 10.5625 -8.625 C 11.757812 -8.625 12.90625 -8.914062 14 -9.5 C 15.101562 -10.082031 16.128906 -10.863281 17.078125 -11.84375 C 18.035156 -12.820312 18.863281 -13.882812 19.5625 -15.03125 C 20.269531 -16.1875 20.820312 -17.351562 21.21875 -18.53125 C 21.613281 -19.707031 21.8125 -20.789062 21.8125 -21.78125 C 21.8125 -22.96875 21.503906 -23.953125 20.890625 -24.734375 C 20.285156 -25.515625 19.304688 -25.90625 17.953125 -25.90625 C 16.265625 -25.90625 14.703125 -25.476562 13.265625 -24.625 C 11.835938 -23.78125 10.597656 -22.648438 9.546875 -21.234375 C 8.503906 -19.816406 7.695312 -18.21875 7.125 -16.4375 C 6.5625 -14.664062 6.28125 -12.84375 6.28125 -10.96875 C 6.28125 -9.1875 6.523438 -7.519531 7.015625 -5.96875 C 7.503906 -4.425781 8.3125 -3.175781 9.4375 -2.21875 C 10.5625 -1.269531 12.09375 -0.796875 14.03125 -0.796875 C 15.132812 -0.796875 16.253906 -1.070312 17.390625 -1.625 C 18.535156 -2.1875 19.609375 -2.894531 20.609375 -3.75 C 21.617188 -4.613281 22.484375 -5.5 23.203125 -6.40625 C 23.921875 -7.320312 24.382812 -8.15625 24.59375 -8.90625 L 25.15625 -8.734375 C 24.757812 -7.546875 24.148438 -6.378906 23.328125 -5.234375 C 22.503906 -4.097656 21.515625 -3.078125 20.359375 -2.171875 C 19.210938 -1.273438 17.941406 -0.554688 16.546875 -0.015625 C 15.160156 0.523438 13.695312 0.796875 12.15625 0.796875 C 10.351562 0.796875 8.707031 0.472656 7.21875 -0.171875 C 5.738281 -0.828125 4.5625 -1.863281 3.6875 -3.28125 C 2.820312 -4.695312 2.390625 -6.546875 2.390625 -8.828125 Z M 2.390625 -8.828125 "></path></g></g><g style="fill:#000000;fill-opacity:1;"><g transform="translate(205.894884, 68.161813)"><path style="stroke:none" d="M 10.8125 0 L 0.796875 0 L 0.796875 -0.484375 C 1.566406 -0.484375 2.15625 -0.664062 2.5625 -1.03125 C 2.96875 -1.40625 3.253906 -1.867188 3.421875 -2.421875 C 3.597656 -2.984375 3.707031 -3.570312 3.75 -4.1875 C 3.789062 -4.8125 3.8125 -5.363281 3.8125 -5.84375 L 3.8125 -21.375 C 3.8125 -21.90625 3.789062 -22.328125 3.75 -22.640625 C 3.707031 -22.960938 3.554688 -23.125 3.296875 -23.125 C 2.953125 -23.125 2.632812 -23.050781 2.34375 -22.90625 C 2.050781 -22.757812 1.535156 -22.6875 0.796875 -22.6875 L 0.796875 -23.171875 C 1.273438 -23.171875 1.863281 -23.328125 2.5625 -23.640625 C 3.257812 -23.960938 3.875 -24.320312 4.40625 -24.71875 C 4.988281 -25.132812 5.453125 -25.519531 5.796875 -25.875 C 6.140625 -26.238281 6.472656 -26.421875 6.796875 -26.421875 C 7.140625 -26.421875 7.390625 -26.257812 7.546875 -25.9375 C 7.703125 -25.625 7.78125 -25.054688 7.78125 -24.234375 L 7.78125 -14.984375 C 8.414062 -17.128906 9.335938 -19.0625 10.546875 -20.78125 C 11.753906 -22.5 13.128906 -23.867188 14.671875 -24.890625 C 16.222656 -25.910156 17.820312 -26.421875 19.46875 -26.421875 C 20.582031 -26.421875 21.410156 -26.300781 21.953125 -26.0625 C 22.492188 -25.820312 22.765625 -25.703125 22.765625 -25.703125 L 22.765625 -19.671875 L 22.296875 -19.671875 C 22.296875 -20.203125 22.140625 -20.738281 21.828125 -21.28125 C 21.523438 -21.820312 21.066406 -22.273438 20.453125 -22.640625 C 19.847656 -23.015625 19.070312 -23.203125 18.125 -23.203125 C 16.632812 -23.203125 15.335938 -22.945312 14.234375 -22.4375 C 13.140625 -21.9375 12.207031 -21.28125 11.4375 -20.46875 C 10.675781 -19.664062 10.054688 -18.8125 9.578125 -17.90625 C 9.097656 -17.007812 8.722656 -16.15625 8.453125 -15.34375 C 8.191406 -14.539062 8.015625 -13.890625 7.921875 -13.390625 C 7.828125 -12.890625 7.78125 -12.640625 7.78125 -12.640625 L 7.78125 -5.84375 C 7.78125 -5.363281 7.800781 -4.8125 7.84375 -4.1875 C 7.882812 -3.570312 7.988281 -2.984375 8.15625 -2.421875 C 8.332031 -1.867188 8.628906 -1.40625 9.046875 -1.03125 C 9.472656 -0.664062 10.0625 -0.484375 10.8125 -0.484375 Z M 10.8125 0 "></path></g></g></g></svg> 