<svg width="105" height="41" viewBox="0 0 105 41" fill="none" xmlns="http://www.w3.org/2000/svg">
<path fill-rule="evenodd" clip-rule="evenodd" d="M21.8146 12.8857V16.4569H12.8839L9.31279 12.8857H21.8146Z" fill="#0778E6"/>
<path fill-rule="evenodd" clip-rule="evenodd" d="M21.8167 18.2433V21.8144H18.2595L14.6884 18.2433H21.8167Z" fill="#0778E6"/>
<path fill-rule="evenodd" clip-rule="evenodd" d="M36.0976 25.0547C36.0716 24.4708 35.9648 23.9191 35.775 23.3969C35.7403 23.3026 35.6864 23.1667 35.6117 23.008C35.6117 23.008 35.2472 22.2349 34.6006 21.5795C33.5832 20.5486 31.619 19.9632 31.619 19.9632C31.6174 19.9627 31.6164 19.9627 31.6149 19.9622C32.556 19.1771 33.1793 18.2215 33.4131 17.8626C33.7704 17.3145 33.9332 16.9267 34.0297 16.6612C34.2189 16.139 34.3257 15.5873 34.3522 15.0035C34.3563 14.9096 34.3563 14.1468 34.3522 14.0296C34.2739 11.9332 33.5153 10.3533 32.0955 9.24982C30.6011 8.11164 28.3953 7.52881 25.5325 7.52881H25.156H25.1529H3.95686L7.52799 11.0999H25.1529H26.835C28.4658 11.0999 29.8036 12.375 29.9016 13.9788C29.9058 13.9908 29.9094 15.1637 29.9094 15.1637C29.9094 16.1297 29.4635 16.9941 28.7634 17.5614C28.2356 17.984 27.5667 18.2381 26.835 18.2381C26.7998 18.2381 25.3868 18.251 25.3868 18.251L25.3862 19.2663C25.3862 19.9477 25.3868 21.8221 25.3868 21.8221C25.3868 21.8221 27.9556 21.8133 28.2911 21.8123C28.3497 21.8123 28.5451 21.8201 28.5804 21.8201C29.3115 21.8201 29.9804 22.0742 30.5088 22.4968C31.2088 23.064 31.6548 23.9284 31.6548 24.8945C31.6548 24.8945 31.6506 26.0679 31.647 26.0793C31.549 27.6831 30.2117 28.9582 28.5804 28.9582H27.1213V28.9566H21.8167V23.5981H18.2461L18.2445 32.5273H18.2461V32.5288L26.8983 32.5273V32.5288H27.2779C30.1412 32.5288 32.347 31.946 33.8409 30.8078C35.2607 29.7049 36.0193 28.1249 36.0976 26.0285C36.1017 25.9113 36.1017 25.1485 36.0976 25.0547Z" fill="#191D1E"/>
<path d="M48.0576 8.56594V7.0224H55.7067V8.56594H52.8314V14.7507H50.932V8.56594H48.0576Z" fill="#191D1E"/>
<path d="M92.8724 8.56899V7.02545H100.522V8.56899H97.6463V14.7538H95.7469V8.56899H92.8724Z" fill="#191D1E"/>
<path d="M56.8973 14.7507V7.03455H58.802V10.1209H61.6803V7.03455H63.5796V14.7507H61.6803V11.6644H58.802V14.7507H56.8973Z" fill="#191D1E"/>
<path d="M64.7596 14.7507V7.04663H70.4904V8.59017H66.6636L66.6514 10.1375H69.535V11.6484H66.6514L66.6636 13.2079H70.4904V14.7514H64.7596V14.7507Z" fill="#191D1E"/>
<path d="M79.6876 14.7568V7.05275L85.4062 7.02319V8.56673L81.5915 8.59628L81.5793 10.1436H84.4629V11.6546H81.5793L81.5915 13.214H85.4183V14.7576H79.6876V14.7568Z" fill="#191D1E"/>
<path d="M73.0014 14.7507V7.05804H75.6726C76.2698 7.05804 76.7713 7.14064 77.1781 7.30583C77.5841 7.47102 77.8891 7.6991 78.0925 7.99008C78.2959 8.28105 78.3976 8.62052 78.3976 9.01001C78.3976 9.3025 78.3338 9.56316 78.2063 9.79201C78.0788 10.0208 77.902 10.2103 77.6774 10.3596C77.4429 10.5157 77.1796 10.6111 76.9026 10.6725C76.9042 10.6998 76.9042 10.7271 76.9026 10.7543C77.2191 10.7718 77.5203 10.8468 77.7965 10.9999C78.072 11.1529 78.2928 11.3659 78.4598 11.6371C78.6267 11.9092 78.711 12.2312 78.711 12.6025C78.711 13.0155 78.6024 13.3837 78.3846 13.7073C78.1669 14.0309 77.8512 14.2855 77.4376 14.4711C77.024 14.6568 76.5187 14.75 75.9215 14.75H73.0014V14.7507ZM74.9061 10.1345C74.9061 10.1345 75.3485 10.1345 75.3493 10.1345C75.8167 10.1345 76.4101 9.89279 76.4534 9.38585C76.4663 9.23506 76.4132 9.07214 76.3282 8.94636C76.0983 8.60764 75.6452 8.53717 75.2552 8.5402C75.1725 8.54096 74.9061 8.54626 74.9061 8.5455V10.1345ZM74.9061 13.2549H75.473C75.9958 13.2549 76.7433 13.0564 76.7213 12.4343C76.7038 11.9425 76.1939 11.6697 75.7371 11.6106C75.5466 11.5856 75.9025 11.5985 75.7105 11.5985C75.4927 11.5985 75.2749 11.5985 75.0564 11.5985C75.042 11.5985 74.9054 11.5985 74.9054 11.5985C74.9061 11.5992 74.9061 13.2549 74.9061 13.2549Z" fill="#0778E6"/>
<path d="M91.9671 11.6576C91.8707 11.4159 91.7304 11.2029 91.546 11.0188C91.3616 10.8347 91.1354 10.6755 90.8691 10.5429C90.6027 10.4103 90.2984 10.3058 89.9577 10.2285L89.3468 10.0777C89.1389 10.0277 88.9553 9.96704 88.7974 9.89657C88.6396 9.8261 88.5182 9.7382 88.4332 9.63211C88.3482 9.52679 88.3057 9.39645 88.3057 9.24187C88.3057 9.10093 88.3437 8.9759 88.4195 8.86679C88.4954 8.75767 88.6092 8.67204 88.7603 8.60991C88.912 8.54777 89.098 8.51671 89.3188 8.51671C89.6534 8.51671 89.9137 8.59248 90.0996 8.74327C90.2855 8.89407 90.3902 9.10548 90.4123 9.37751H92.0172C92.0111 8.91453 91.8973 8.50761 91.6765 8.15753C91.4557 7.80669 91.1445 7.53391 90.7439 7.33765C90.3432 7.14139 89.8697 7.04364 89.3241 7.04364C88.7906 7.04364 88.3179 7.13987 87.9066 7.3331C87.4945 7.52632 87.1705 7.79684 86.9337 8.14541C86.697 8.49397 86.5786 8.90013 86.5786 9.36311C86.5786 9.92688 86.7524 10.3762 87.0992 10.7119C87.446 11.0476 87.924 11.2886 88.5334 11.4363L89.2816 11.6227C89.5403 11.6833 89.7536 11.7515 89.9205 11.8288C90.0875 11.9061 90.2134 11.9948 90.2969 12.0956C90.3804 12.1963 90.4221 12.3183 90.4221 12.4631C90.4221 12.6237 90.3773 12.7647 90.287 12.8859C90.1967 13.0064 90.0685 13.1003 89.9016 13.1678C89.7346 13.2352 89.5358 13.2686 89.3051 13.2686C89.0494 13.2686 88.8263 13.2276 88.6351 13.145C88.4438 13.0624 88.2943 12.9397 88.1851 12.7753C88.1168 12.673 88.0697 12.5532 88.0378 12.4206H86.4063C86.4443 12.8851 86.5657 13.2807 86.7721 13.6058C87.0149 13.9884 87.3541 14.2733 87.7897 14.4613C88.2253 14.6492 88.7367 14.7431 89.3233 14.7431C89.9069 14.7431 90.4062 14.6522 90.8213 14.4711C91.2364 14.29 91.5551 14.0293 91.7774 13.6884C91.9998 13.3481 92.1113 12.9412 92.1113 12.4684C92.1113 12.1691 92.0635 11.8993 91.9671 11.6576Z" fill="#191D1E"/>
<path d="M58.6472 20.2019C58.185 19.3654 57.5226 18.7152 56.6605 18.2462C55.7962 17.7794 54.774 17.5453 53.5865 17.5453L48.0811 17.4968L48.0879 33.0352H51.8282L51.8305 28.3356L53.4848 28.3622C54.6921 28.3622 55.7363 28.1318 56.6112 27.6696C57.4884 27.2096 58.163 26.5678 58.6365 25.7472C59.1101 24.9265 59.3468 23.9619 59.3468 22.8533C59.3468 21.7493 59.1101 21.0385 58.6472 20.2019ZM55.1626 24.1544C55.0161 24.4082 54.8249 24.6348 54.5988 24.8174C54.0934 25.2281 53.4377 25.3463 52.8056 25.3463L51.8313 25.3266L51.8244 20.5869L52.7904 20.6331C53.3785 20.6331 53.8718 20.7346 54.2709 20.9362C55.1117 21.3598 55.5845 22.3737 55.4555 23.308C55.4138 23.6065 55.3121 23.8945 55.1626 24.1544Z" fill="#191D1E"/>
<path d="M99.9334 20.1792C99.4713 19.3427 98.8088 18.6925 97.9468 18.2235C97.0824 17.7567 96.0603 17.5226 94.8727 17.5226L89.3673 17.4741L89.3741 33.0125H93.1145L93.1167 28.3129L94.771 28.3394C95.9783 28.3394 97.0225 28.1091 97.8974 27.6469C98.7747 27.1869 99.4493 26.5451 99.9228 25.7245C100.396 24.9038 100.633 23.9392 100.633 22.8306C100.632 21.7266 100.396 21.0158 99.9334 20.1792ZM96.4481 24.1309C96.3016 24.3847 96.1104 24.6113 95.8842 24.7939C95.3788 25.2046 94.7232 25.3228 94.0911 25.3228L93.1167 25.3031L93.1099 20.5634L94.0759 20.6096C94.664 20.6096 95.1573 20.7112 95.5564 20.9127C96.3972 21.3363 96.87 22.3502 96.741 23.2845C96.7 23.5838 96.5976 23.8718 96.4481 24.1309Z" fill="#191D1E"/>
<path d="M68.4476 32.9898L64.5995 25.7813H68.6062L72.5499 32.9898H68.4476Z" fill="#191D1E"/>
<path d="M80.9647 33.0284C79.7293 33.0284 78.6183 32.7276 77.6311 32.1252C76.6438 31.5227 75.8622 30.643 75.2848 29.4859C74.7065 28.3288 74.4182 26.9247 74.4182 25.2736C74.4182 23.6088 74.7073 22.1979 75.2848 21.0408C75.8622 19.8837 76.6446 19.0039 77.6311 18.4015C78.6176 17.7991 79.7285 17.4983 80.9647 17.4983C82.194 17.4983 83.3019 17.7991 84.2892 18.4015C85.2764 19.0039 86.0565 19.8837 86.6309 21.0408C87.2054 22.1979 87.493 23.6088 87.493 25.2736C87.493 26.9315 87.2054 28.3394 86.6309 29.4965C86.0557 30.6536 85.2757 31.5318 84.2892 32.1305C83.3019 32.7283 82.194 33.0284 80.9647 33.0284ZM80.9647 29.8815C81.6287 29.8815 82.2001 29.7057 82.6797 29.3533C83.1592 29.0017 83.528 28.4819 83.786 27.7954C84.0441 27.1088 84.1731 26.2677 84.1731 25.2728C84.1731 24.2711 84.0441 23.4254 83.786 22.7351C83.528 22.0448 83.1592 21.5235 82.6797 21.1719C82.2001 20.8203 81.6287 20.6437 80.9647 20.6437C80.2946 20.6437 79.7202 20.821 79.2406 21.1764C78.761 21.5318 78.3922 22.0531 78.1342 22.7397C77.8762 23.4262 77.7472 24.2711 77.7472 25.2721C77.7472 26.267 77.8762 27.1058 78.1342 27.7893C78.3922 28.4728 78.761 28.9919 79.2406 29.3472C79.7202 29.7034 80.2946 29.8815 80.9647 29.8815Z" fill="#191D1E"/>
<path d="M71.785 20.2019C71.3229 19.3654 70.6604 18.7152 69.7984 18.2462C68.934 17.7794 67.9119 17.5453 66.7243 17.5453L61.2189 17.4968L61.2257 33.0352H64.9661L64.9683 28.3356L66.6226 28.3622C67.8299 28.3622 68.8741 28.1318 69.749 27.6696C70.6263 27.2096 71.3009 26.5678 71.7744 25.7472C72.2479 24.9265 72.4847 23.9619 72.4847 22.8533C72.4847 21.7493 72.2471 21.0385 71.785 20.2019ZM68.2996 24.1544C68.1532 24.4082 67.962 24.6348 67.7358 24.8174C67.2304 25.2281 66.5748 25.3463 65.9427 25.3463L64.9683 25.3266L64.9615 20.5869L65.9275 20.6331C66.5156 20.6331 67.0089 20.7346 67.408 20.9362C68.2488 21.3598 68.7216 22.3737 68.5926 23.308C68.5516 23.6065 68.4491 23.8945 68.2996 24.1544Z" fill="#191D1E"/>
</svg>
